<?xml version="1.0" encoding="UTF-8" standalone="no"?>
<svg
   xmlns:dc="http://purl.org/dc/elements/1.1/"
   xmlns:cc="http://creativecommons.org/ns#"
   xmlns:rdf="http://www.w3.org/1999/02/22-rdf-syntax-ns#"
   xmlns:svg="http://www.w3.org/2000/svg"
   xmlns="http://www.w3.org/2000/svg"
   xmlns:sodipodi="http://sodipodi.sourceforge.net/DTD/sodipodi-0.dtd"
   xmlns:inkscape="http://www.inkscape.org/namespaces/inkscape"
   width="210mm"
   height="297mm"
   viewBox="0 0 210 297"
   version="1.1"
   id="svg8"
   sodipodi:docname="mary.svg"
   inkscape:version="1.0.2 (e86c870879, 2021-01-15)">
  <defs
     id="defs2" />
  <sodipodi:namedview
     id="base"
     pagecolor="#ffffff"
     bordercolor="#666666"
     borderopacity="1.0"
     inkscape:pageopacity="0.0"
     inkscape:pageshadow="2"
     inkscape:zoom="0.98994949"
     inkscape:cx="350.28257"
     inkscape:cy="189.23538"
     inkscape:document-units="mm"
     inkscape:current-layer="layer3"
     inkscape:document-rotation="0"
     showgrid="false"
     inkscape:window-width="1533"
     inkscape:window-height="991"
     inkscape:window-x="26"
     inkscape:window-y="23"
     inkscape:window-maximized="0" />
  <metadata
     id="metadata5">
    <rdf:RDF>
      <cc:Work
         rdf:about="">
        <dc:format>image/svg+xml</dc:format>
        <dc:type
           rdf:resource="http://purl.org/dc/dcmitype/StillImage" />
      </cc:Work>
    </rdf:RDF>
  </metadata>
  <g
     inkscape:label="Layer 1"
     inkscape:groupmode="layer"
     id="layer1">
    <path
       id="path10"
       style="fill:#ff0000;fill-rule:evenodd;stroke-width:1.68207"
       d="M 319.93359 229.58203 L 319.93359 352.62891 L 23.335938 352.62891 A 270.36111 241.69922 0 0 0 140.9043 483.76758 L 641.35742 483.76758 A 192.01958 171.66295 0 0 0 716.60547 352.62891 L 499.31836 352.62891 L 499.31836 229.58203 L 319.93359 229.58203 z "
       transform="scale(0.26458333)" />
    <rect
       style="fill:#ff0000;stroke-width:0.264583"
       id="rect864"
       width="2.8303921"
       height="76.944733"
       x="46.749451"
       y="16.654575" />
    <rect
       style="fill:#ff0000;stroke-width:0.264583"
       id="rect864-8"
       width="2.8303921"
       height="76.944733"
       x="159.07631"
       y="16.823631" />
    <rect
       style="fill:#000000;stroke-width:1.424;stroke:#ffffff;stroke-opacity:1;stroke-miterlimit:4;stroke-dasharray:none;fill-opacity:1"
       id="rect886"
       width="30.500046"
       height="17.986404"
       x="92.778023"
       y="68.537926" />
    <path
       style="fill:none;stroke:#ffffff;stroke-width:1.565;stroke-linecap:butt;stroke-linejoin:miter;stroke-opacity:1;stroke-miterlimit:4;stroke-dasharray:none"
       d="M 93.172662,77.293093 123.18411,77.90698"
       id="path888" />
    <path
       style="fill:none;stroke:#ffffff;stroke-width:1.465;stroke-linecap:butt;stroke-linejoin:miter;stroke-opacity:1;stroke-miterlimit:4;stroke-dasharray:none"
       d="m 108.41329,68.896028 0.22342,17.688859"
       id="path890" />
    <path
       style="fill:none;stroke:#000000;stroke-width:1.465;stroke-linecap:butt;stroke-linejoin:miter;stroke-opacity:1;stroke-miterlimit:4;stroke-dasharray:none"
       d="M 84.649095,60.743578 H 132.11131"
       id="path912" />
    <path
       id="path914"
       style="fill:#ff0000;fill-opacity:1;stroke:none;stroke-width:1.465;stroke-miterlimit:4;stroke-dasharray:none;stroke-opacity:1"
       d="m 92.960561,30.09297 a 18.919237,26.051992 0 0 0 -2.687174,13.382646 18.919237,26.051992 0 0 0 4.964038,17.590141 H 123.14838 A 18.919237,26.051992 0 0 0 128.1119,43.475616 18.919237,26.051992 0 0 0 125.42473,30.09297 Z" />
    <path
       id="path944"
       style="fill:#00000f;fill-opacity:1;stroke:none;stroke-width:5.53701;stroke-miterlimit:4;stroke-dasharray:none;stroke-opacity:1"
       d="M 351.34766 113.73633 A 71.505778 98.464222 0 0 0 342.56445 145.11914 L 482.83008 145.11914 A 71.505778 98.464222 0 0 0 474.04688 113.73633 L 351.34766 113.73633 z M 343.83984 190.86719 A 71.505778 98.464222 0 0 0 359.95312 230.79883 L 465.44336 230.79883 A 71.505778 98.464222 0 0 0 481.55273 190.86719 L 343.83984 190.86719 z "
       transform="scale(0.26458333)" />
    <path
       style="fill:none;stroke:#000000;stroke-width:1.465;stroke-linecap:butt;stroke-linejoin:miter;stroke-opacity:1;stroke-miterlimit:4;stroke-dasharray:none"
       d="M 6.1743002,93.299731 H 189.60186"
       id="path949" />
  </g>
  <g
     inkscape:groupmode="layer"
     id="layer2"
     inkscape:label="flag"
     style="display:none">
    <path
       id="rect956"
       style="fill:#ff5500;fill-opacity:1;stroke:none;stroke-width:1.465;stroke-miterlimit:4;stroke-dasharray:none;stroke-opacity:1"
       d="m 161.90671,48.676731 v -31.8531 l 19.18958,13.140524 12.66352,18.712576 -16.05689,-2.461803 z"
       sodipodi:nodetypes="cccccc" />
    <text
       xml:space="preserve"
       style="font-style:normal;font-weight:normal;font-size:10.5833px;line-height:1.25;font-family:sans-serif;fill:#000000;fill-opacity:1;stroke:none;stroke-width:0.264583"
       x="168.60742"
       y="39.754253"
       id="text961"><tspan
         sodipodi:role="line"
         id="tspan959"
         x="168.60742"
         y="39.754253"
         style="stroke-width:0.264583">Ο</tspan></text>
  </g>
  <g
     inkscape:groupmode="layer"
     id="layer3"
     inkscape:label="flag bezier"
     style="display:inline">
    <path
       style="fill:#ff5500;stroke:#ff5500;stroke-width:0.264583px;stroke-linecap:butt;stroke-linejoin:miter;stroke-opacity:1;fill-opacity:1"
       d="m 161.90671,16.823631 c 15.50724,7.045467 25.6621,18.001313 31.8531,31.8531 -12.44376,-3.907323 -22.45089,-2.600845 -31.8531,0 3.00826,-7.880607 2.24978,-19.188417 0,-31.8531"
       id="path976"
       sodipodi:nodetypes="cccc" />
    <text
       xml:space="preserve"
       style="font-style:normal;font-weight:normal;font-size:15.2077px;line-height:1.25;font-family:sans-serif;fill:#000000;fill-opacity:1;stroke:none;stroke-width:0.380194"
       x="169.09996"
       y="41.851162"
       id="text961-9"><tspan
         sodipodi:role="line"
         id="tspan959-3"
         x="169.09996"
         y="41.851162"
         style="stroke-width:0.380194">Ο</tspan></text>
  </g>
</svg>
